<?xml version="1.0" encoding="UTF-8" standalone="no"?>
<!-- Created with Inkscape (http://www.inkscape.org/) -->
<svg
   xmlns:svg="http://www.w3.org/2000/svg"
   xmlns="http://www.w3.org/2000/svg"
   version="1.0"
   width="560.83667"
   height="122.4932"
   viewBox="0 0 560 122"

   id="svg2667">
  <defs
     id="defs2669" />
  <g
     transform="translate(106.80193,-432.76044)"
     id="layer1">
    <path
       d="M 2.6511003,515.56174 L 2.6511003,463.28001 L -16.809457,463.28001 L -16.809457,515.56174 L 2.6511003,515.56174"
       id="path137"
       style="fill:#ee2d24;fill-opacity:1;fill-rule:nonzero;stroke:none" />
    <path
       d="M 2.6511003,515.56174 L 2.6511003,463.28001 L -16.809457,463.28001 L -16.809457,515.56174 L 2.6511003,515.56174 z"
       id="path139"
       style="fill:none;stroke:#ee2d24;stroke-width:1.04271603;stroke-linecap:butt;stroke-linejoin:miter;stroke-miterlimit:4;stroke-dasharray:none;stroke-opacity:1" />
    <path
       d="M 226.57092,463.28001 L 200.31878,463.28363 L 192.23779,484.92349 C 191.57378,486.71334 191.37926,490.13348 191.37926,490.13348 C 191.37926,490.13348 191.09772,486.66135 190.45474,484.92349 L 182.43973,463.28363 L 156.28494,463.28001 L 156.26044,515.56877 L 173.04483,515.56174 L 173.04483,484.45763 C 173.04483,484.45763 173.04483,486.30327 173.76083,487.96814 L 185.64084,515.56877 L 197.11767,515.56877 L 208.99768,487.32855 C 209.70325,485.65344 209.70325,483.80764 209.70325,483.80764 L 209.70325,515.56174 L 226.57092,515.56174 L 226.57092,463.28001"
       id="path141"
       style="fill:#ee2d24;fill-opacity:1;fill-rule:nonzero;stroke:none" />
    <path
       d="M 226.57092,463.28001 L 200.31878,463.28363 L 192.23779,484.92349 C 191.57378,486.71334 191.37926,490.13348 191.37926,490.13348 C 191.37926,490.13348 191.09772,486.66135 190.45474,484.92349 L 182.43973,463.28363 L 156.28494,463.28001 L 156.26044,515.56877 L 173.04483,515.56174 L 173.04483,484.45763 C 173.04483,484.45763 173.04483,486.30327 173.76083,487.96814 L 185.64084,515.56877 L 197.11767,515.56877 L 208.99768,487.32855 C 209.70325,485.65344 209.70325,483.80764 209.70325,483.80764 L 209.70325,515.56174 L 226.57092,515.56174 L 226.57092,463.28001 z"
       id="path143"
       style="fill:none;stroke:#ee2d24;stroke-width:1.04271603;stroke-linecap:butt;stroke-linejoin:miter;stroke-miterlimit:4;stroke-dasharray:none;stroke-opacity:1" />
    <path
       d="M 371.77611,463.28001 L 353.4104,463.28001 L 353.4104,491.98612 C 353.4104,491.98612 353.4104,490.14046 352.20436,488.73633 L 330.38037,463.28001 L 311.03098,463.28001 L 311.03098,515.56174 L 330.38037,515.56174 L 330.38037,486.8593 C 330.38037,486.8593 330.38037,488.70151 331.53761,490.10248 L 352.55187,515.57239 L 371.77611,515.56174 L 371.77611,463.28001"
       id="path145"
       style="fill:#ee2d24;fill-opacity:1;fill-rule:nonzero;stroke:none" />
    <path
       d="M 371.77611,463.28001 L 353.4104,463.28001 L 353.4104,491.98612 C 353.4104,491.98612 353.4104,490.14046 352.20436,488.73633 L 330.38037,463.28001 L 311.03098,463.28001 L 311.03098,515.56174 L 330.38037,515.56174 L 330.38037,486.8593 C 330.38037,486.8593 330.38037,488.70151 331.53761,490.10248 L 352.55187,515.57239 L 371.77611,515.56174 L 371.77611,463.28001 z"
       id="path147"
       style="fill:none;stroke:#ee2d24;stroke-width:1.04271603;stroke-linecap:butt;stroke-linejoin:miter;stroke-miterlimit:4;stroke-dasharray:none;stroke-opacity:1" />
    <path
       d="M 304.74693,515.56877 L 278.31052,463.28702 L 257.75853,463.28702 L 231.32223,515.56877 L 249.07971,515.56877 L 249.07971,515.56877 L 251.87416,515.56877 L 256.76103,505.89938 L 279.30452,505.90277 L 284.19491,515.56877 L 285.00114,515.56877 L 285.00114,515.57239 L 302.96389,515.57239 L 302.96027,515.56877 L 304.74693,515.56877 z M 261.707,492.66389 C 261.707,492.66389 266.40604,483.34201 267.21947,481.72588 C 268.03281,480.10959 268.03281,478.26734 268.03281,478.26734 C 268.03281,478.26734 268.03281,480.10959 268.84958,481.73267 L 274.38649,492.71589 L 261.707,492.66389"
       id="path149"
       style="fill:#ee2d24;fill-opacity:1;fill-rule:nonzero;stroke:none" />
    <path
       d="M 304.74693,515.56877 L 278.31052,463.28702 L 257.75853,463.28702 L 231.32223,515.56877 L 249.07971,515.56877 L 249.07971,515.56877 L 251.87416,515.56877 L 256.76103,505.89938 L 279.30452,505.90277 L 284.19491,515.56877 L 285.00114,515.56877 L 285.00114,515.57239 L 302.96389,515.57239 L 302.96027,515.56877 L 304.74693,515.56877 z M 261.707,492.66389 C 261.707,492.66389 266.40604,483.34201 267.21947,481.72588 C 268.03281,480.10959 268.03281,478.26734 268.03281,478.26734 C 268.03281,478.26734 268.03281,480.10959 268.84958,481.73267 L 274.38649,492.71589 L 261.707,492.66389 z"
       id="path151"
       style="fill:none;stroke:#ee2d24;stroke-width:1.04271603;stroke-linecap:butt;stroke-linejoin:miter;stroke-miterlimit:4;stroke-dasharray:none;stroke-opacity:1" />
    <path
       d="M 38.680471,501.61729 L 38.683891,494.36338 L 67.872905,494.36338 L 67.872905,482.59823 L 38.683891,482.59823 L 38.683891,476.11941 L 74.212758,476.11941 L 74.212758,463.28363 L 20.2383,463.28001 L 20.2383,515.56174 L 75.630824,515.56174 L 75.630824,501.62071 L 38.680471,501.61729"
       id="path153"
       style="fill:#ee2d24;fill-opacity:1;fill-rule:nonzero;stroke:none" />
    <path
       d="M 38.680471,501.61729 L 38.683891,494.36338 L 67.872905,494.36338 L 67.872905,482.59823 L 38.683891,482.59823 L 38.683891,476.11941 L 74.212758,476.11941 L 74.212758,463.28363 L 20.2383,463.28001 L 20.2383,515.56174 L 75.630824,515.56174 L 75.630824,501.62071 L 38.680471,501.61729 z"
       id="path155"
       style="fill:none;stroke:#ee2d24;stroke-width:1.04271603;stroke-linecap:butt;stroke-linejoin:miter;stroke-miterlimit:4;stroke-dasharray:none;stroke-opacity:1" />
    <path
       d="M -103.25062,463.27662 L -75.292007,515.63134 L -52.765781,515.63134 L -25.175487,463.28001 L -47.023892,463.28001 L -62.605545,495.11775 C -63.411884,496.76162 -63.411884,498.60384 -63.411884,498.60384 C -63.411884,498.60384 -63.411884,496.76162 -64.239245,495.07256 L -79.817283,463.28001 L -103.25062,463.27662"
       id="path157"
       style="fill:#ee2d24;fill-opacity:1;fill-rule:nonzero;stroke:none" />
    <path
       d="M -103.25062,463.27662 L -75.292007,515.63134 L -52.765781,515.63134 L -25.175487,463.28001 L -47.023892,463.28001 L -62.605545,495.11775 C -63.411884,496.76162 -63.411884,498.60384 -63.411884,498.60384 C -63.411884,498.60384 -63.411884,496.76162 -64.239245,495.07256 L -79.817283,463.28001 L -103.25062,463.27662 z"
       id="path159"
       style="fill:none;stroke:#ee2d24;stroke-width:1.04271603;stroke-linecap:butt;stroke-linejoin:miter;stroke-miterlimit:4;stroke-dasharray:none;stroke-opacity:1" />
    <path
       d="M 142.75396,436.01307 L 99.853089,435.98171 C 99.853089,435.98171 83.027128,436.39537 83.027128,453.00943 C 83.027128,470.09951 99.853089,469.71363 99.853089,469.71363 L 125.34755,469.67884 C 125.34755,469.67884 128.71202,469.67884 128.71202,473.20672 C 128.71202,476.26199 125.33707,476.26199 125.33707,476.26199 L 84.20195,476.26199 L 84.20195,490.59934 L 126.82471,490.6027 C 126.82471,490.6027 144.96796,491.29432 144.96796,472.61949 C 144.96796,456.54771 126.82471,456.07504 126.82471,456.07504 L 102.66492,456.07504 C 102.66492,456.07504 98.914673,456.07504 98.914673,453.01279 C 98.914673,450.0515 102.66492,450.0515 102.66492,450.0515 L 142.75396,450.0515 L 142.75396,436.01307"
       id="path161"
       style="fill:#ee2d24;fill-opacity:1;fill-rule:nonzero;stroke:none" />
    <path
       d="M 142.75396,436.01307 L 99.853089,435.98171 C 99.853089,435.98171 83.027128,436.39537 83.027128,453.00943 C 83.027128,470.09951 99.853089,469.71363 99.853089,469.71363 L 125.34755,469.67884 C 125.34755,469.67884 128.71202,469.67884 128.71202,473.20672 C 128.71202,476.26199 125.33707,476.26199 125.33707,476.26199 L 84.20195,476.26199 L 84.20195,490.59934 L 126.82471,490.6027 C 126.82471,490.6027 144.96796,491.29432 144.96796,472.61949 C 144.96796,456.54771 126.82471,456.07504 126.82471,456.07504 L 102.66492,456.07504 C 102.66492,456.07504 98.914673,456.07504 98.914673,453.01279 C 98.914673,450.0515 102.66492,450.0515 102.66492,450.0515 L 142.75396,450.0515 L 142.75396,436.01307 z"
       id="path163"
       style="fill:none;stroke:#ee2d24;stroke-width:1.04271603;stroke-linecap:butt;stroke-linejoin:miter;stroke-miterlimit:4;stroke-dasharray:none;stroke-opacity:1" />
    <path
       d="M 448.9649,463.28702 L 430.59925,463.28702 L 430.59925,491.9931 C 430.59925,491.9931 430.59925,490.14747 429.3966,488.7433 L 407.57261,463.28702 L 388.22319,463.28702 L 388.22319,515.57239 L 407.57261,515.57239 L 407.57261,486.86628 C 407.57261,486.86628 407.57261,488.71213 408.73002,490.11265 L 429.74409,515.57937 L 448.9649,515.57239 L 448.9649,463.28702"
       id="path165"
       style="fill:#ee2d24;fill-opacity:1;fill-rule:nonzero;stroke:none" />
    <path
       d="M 448.9649,463.28702 L 430.59925,463.28702 L 430.59925,491.9931 C 430.59925,491.9931 430.59925,490.14747 429.3966,488.7433 L 407.57261,463.28702 L 388.22319,463.28702 L 388.22319,515.57239 L 407.57261,515.57239 L 407.57261,486.86628 C 407.57261,486.86628 407.57261,488.71213 408.73002,490.11265 L 429.74409,515.57937 L 448.9649,515.57239 L 448.9649,463.28702 z"
       id="path167"
       style="fill:none;stroke:#ee2d24;stroke-width:1.04271603;stroke-linecap:butt;stroke-linejoin:miter;stroke-miterlimit:4;stroke-dasharray:none;stroke-opacity:1" />
    <path
       d="M 142.76783,498.49267 L 99.866992,498.46489 C 99.866992,498.46489 83.037611,498.87495 83.037611,515.49242 C 83.037611,532.57909 99.866992,532.19342 99.866992,532.19342 L 125.35795,532.16183 C 125.35795,532.16183 128.72242,532.16183 128.72242,535.68972 C 128.72242,538.74499 125.35097,538.74499 125.35097,538.74499 L 84.215852,538.74499 L 84.215852,553.08253 L 126.8351,553.08253 C 126.8351,553.08253 144.98187,553.7775 144.98187,535.10229 C 144.98187,519.02709 126.8351,518.55781 126.8351,518.55781 L 102.67891,518.55444 C 102.67891,518.55444 98.928576,518.55444 98.928576,515.49242 C 98.928576,512.53113 102.67891,512.53113 102.67891,512.53113 L 142.76783,512.5345 L 142.76783,498.49267"
       id="path169"
       style="fill:#ee2d24;fill-opacity:1;fill-rule:nonzero;stroke:none" />
    <path
       d="M 142.76783,498.49267 L 99.866992,498.46489 C 99.866992,498.46489 83.037611,498.87495 83.037611,515.49242 C 83.037611,532.57909 99.866992,532.19342 99.866992,532.19342 L 125.35795,532.16183 C 125.35795,532.16183 128.72242,532.16183 128.72242,535.68972 C 128.72242,538.74499 125.35097,538.74499 125.35097,538.74499 L 84.215852,538.74499 L 84.215852,553.08253 L 126.8351,553.08253 C 126.8351,553.08253 144.98187,553.7775 144.98187,535.10229 C 144.98187,519.02709 126.8351,518.55781 126.8351,518.55781 L 102.67891,518.55444 C 102.67891,518.55444 98.928576,518.55444 98.928576,515.49242 C 98.928576,512.53113 102.67891,512.53113 102.67891,512.53113 L 142.76783,512.5345 L 142.76783,498.49267 z"
       id="path171"
       style="fill:none;stroke:#ee2d24;stroke-width:1.04271603;stroke-linecap:butt;stroke-linejoin:miter;stroke-miterlimit:4;stroke-dasharray:none;stroke-opacity:1" />
  </g>
</svg>
